<?xml version="1.0" encoding="UTF-8"?>
<svg width="52px" height="66px" viewBox="0 0 52 66" version="1.1" xmlns="http://www.w3.org/2000/svg" xmlns:xlink="http://www.w3.org/1999/xlink">
    <!-- Generator: Sketch 52.4 (67378) - http://www.bohemiancoding.com/sketch -->
    <title>Group 6</title>
    <desc>Created with Sketch.</desc>
    <g id="Page-1" stroke="none" stroke-width="1" fill="none" fill-rule="evenodd">
        <g id="Group-6" transform="translate(1.000000, 1.000000)" fill-rule="nonzero">
            <g id="161" transform="translate(5.608696, 49.456522)" fill="#A1AAAC">
                <path d="M0.354063735,10.7096714 C0.354063735,13.4764699 2.63710474,15.1309289 4.84276186,15.1309289 L33.2007164,15.1309289 C35.4068058,15.1309289 37.6894145,13.4764699 37.6894145,10.7096714 C37.6894145,7.78637599 34.3355361,0.201025198 19.0217391,0.201025198 C3.70794219,0.201025198 0.354063735,7.7868083 0.354063735,10.7096714 Z M19.0217391,1.57793972 C33.1358696,1.57793972 36.3125,8.3406003 36.3125,10.7096714 C36.3125,12.6870677 34.7090539,13.7544466 33.2007164,13.7544466 L4.84276186,13.7544466 C3.33442441,13.7544466 1.73097826,12.6870677 1.73097826,10.7096714 C1.73097826,8.3406003 4.9076087,1.57793972 19.0217391,1.57793972 Z" id="Shape"></path>
            </g>
            <circle id="Oval" stroke="#A1AAAC" stroke-width="2" cx="25" cy="25" r="25"></circle>
            <path d="M17.8668478,5.97826087 C11.0118071,5.97826087 5.43478261,11.5552853 5.43478261,18.4103261 C5.43478261,19.0978193 5.99049592,19.6535326 6.67798913,19.6535326 C7.36548234,19.6535326 7.92119565,19.0978193 7.92119565,18.4103261 C7.92119565,12.9265421 12.3830639,8.46467391 17.8668478,8.46467391 C18.554341,8.46467391 19.1100543,7.9089606 19.1100543,7.22146739 C19.1100543,6.53397418 18.5530978,5.97826087 17.8668478,5.97826087 Z" id="Shape" fill="#A1AAAC"></path>
        </g>
    </g>
</svg>