<svg width="18" height="20" viewBox="0 0 18 20" fill="none" xmlns="http://www.w3.org/2000/svg">
<path d="M16 2H11.816C11.403 0.837 10.304 0 9 0C7.696 0 6.597 0.837 6.184 2H2C0.895 2 0 2.895 0 4V18C0 19.105 0.895 20 2 20H16C17.105 20 18 19.105 18 18V4C18 2.895 17.105 2 16 2ZM9 2C9.552 2 10 2.448 10 3C10 3.552 9.552 4 9 4C8.448 4 8 3.552 8 3C8 2.448 8.448 2 9 2ZM9 7C10.133 7 11 7.867 11 9C11 10.133 10.133 11 9 11C7.867 11 7 10.133 7 9C7 7.867 7.867 7 9 7ZM12.5 15H5.5C5.224 15 5 14.776 5 14.5V14.217C5 12.909 6.815 12 9 12C11.185 12 13 12.909 13 14.217V14.5C13 14.776 12.776 15 12.5 15Z" fill="#CACACA"/>
</svg>
