<svg width="20" height="14" viewBox="0 0 20 14" fill="none" xmlns="http://www.w3.org/2000/svg">
<path d="M1.0128 0.000100007C0.880477 -0.00177404 0.749101 0.0227073 0.626308 0.072121C0.503514 0.121535 0.391752 0.194895 0.297517 0.28794C0.203281 0.380984 0.128452 0.491857 0.0773767 0.614114C0.0263017 0.736371 0 0.867575 0 1.0001C0 1.13263 0.0263017 1.26383 0.0773767 1.38609C0.128452 1.50834 0.203281 1.61922 0.297517 1.71226C0.391752 1.8053 0.503514 1.87867 0.626308 1.92808C0.749101 1.97749 0.880477 2.00197 1.0128 2.0001H18.9872C19.1195 2.00197 19.2509 1.97749 19.3737 1.92808C19.4965 1.87867 19.6082 1.8053 19.7025 1.71226C19.7967 1.61922 19.8715 1.50834 19.9226 1.38609C19.9737 1.26383 20 1.13263 20 1.0001C20 0.867575 19.9737 0.736371 19.9226 0.614114C19.8715 0.491857 19.7967 0.380984 19.7025 0.28794C19.6082 0.194895 19.4965 0.121535 19.3737 0.072121C19.2509 0.0227073 19.1195 -0.00177404 18.9872 0.000100007H1.0128ZM1.0128 6.0001C0.880477 5.99823 0.749101 6.02271 0.626308 6.07212C0.503514 6.12153 0.391752 6.1949 0.297517 6.28794C0.203281 6.38098 0.128452 6.49186 0.0773767 6.61411C0.0263017 6.73637 0 6.86758 0 7.0001C0 7.13263 0.0263017 7.26383 0.0773767 7.38609C0.128452 7.50834 0.203281 7.61922 0.297517 7.71226C0.391752 7.8053 0.503514 7.87867 0.626308 7.92808C0.749101 7.97749 0.880477 8.00197 1.0128 8.0001H18.9872C19.1195 8.00197 19.2509 7.97749 19.3737 7.92808C19.4965 7.87867 19.6082 7.8053 19.7025 7.71226C19.7967 7.61922 19.8715 7.50834 19.9226 7.38609C19.9737 7.26383 20 7.13263 20 7.0001C20 6.86758 19.9737 6.73637 19.9226 6.61411C19.8715 6.49186 19.7967 6.38098 19.7025 6.28794C19.6082 6.1949 19.4965 6.12153 19.3737 6.07212C19.2509 6.02271 19.1195 5.99823 18.9872 6.0001H1.0128ZM1.0128 12.0001C0.880477 11.9982 0.749101 12.0227 0.626308 12.0721C0.503514 12.1215 0.391752 12.1949 0.297517 12.2879C0.203281 12.381 0.128452 12.4919 0.0773767 12.6141C0.0263017 12.7364 0 12.8676 0 13.0001C0 13.1326 0.0263017 13.2638 0.0773767 13.3861C0.128452 13.5083 0.203281 13.6192 0.297517 13.7123C0.391752 13.8053 0.503514 13.8787 0.626308 13.9281C0.749101 13.9775 0.880477 14.002 1.0128 14.0001H18.9872C19.1195 14.002 19.2509 13.9775 19.3737 13.9281C19.4965 13.8787 19.6082 13.8053 19.7025 13.7123C19.7967 13.6192 19.8715 13.5083 19.9226 13.3861C19.9737 13.2638 20 13.1326 20 13.0001C20 12.8676 19.9737 12.7364 19.9226 12.6141C19.8715 12.4919 19.7967 12.381 19.7025 12.2879C19.6082 12.1949 19.4965 12.1215 19.3737 12.0721C19.2509 12.0227 19.1195 11.9982 18.9872 12.0001H1.0128Z" fill="#86CD03"/>
</svg>
