<svg width="30" height="30" viewBox="0 0 30 30" fill="none" xmlns="http://www.w3.org/2000/svg">
<path d="M15 0C6.729 0 0 5.87634 0 13.0973C0 20.7506 7.56 26.934 16.5 26.1263V29.1052C16.53 29.095 16.5 30.5605 18 29.7615L18.81 29.258C20.508 28.2015 29.0205 22.5231 29.9145 14.4871C29.97 14.0302 30 13.5659 30 13.0973C30 5.87634 23.271 0 15 0ZM9.75 14.5526H8.25C7.836 14.5526 7.5 14.2266 7.5 13.825V12.3697C7.5 11.9681 7.836 11.6421 8.25 11.6421H9.75C10.164 11.6421 10.5 11.9681 10.5 12.3697V13.825C10.5 14.2266 10.164 14.5526 9.75 14.5526ZM15.75 14.5526H14.25C13.836 14.5526 13.5 14.2266 13.5 13.825V12.3697C13.5 11.9681 13.836 11.6421 14.25 11.6421H15.75C16.164 11.6421 16.5 11.9681 16.5 12.3697V13.825C16.5 14.2266 16.164 14.5526 15.75 14.5526ZM21.75 14.5526H20.25C19.836 14.5526 19.5 14.2266 19.5 13.825V12.3697C19.5 11.9681 19.836 11.6421 20.25 11.6421H21.75C22.164 11.6421 22.5 11.9681 22.5 12.3697V13.825C22.5 14.2266 22.164 14.5526 21.75 14.5526Z" fill="#86CD03"/>
</svg>
