<svg width="38" height="38" viewBox="0 0 38 38" fill="none" xmlns="http://www.w3.org/2000/svg">
<path d="M7 2C4.23858 2 2 4.23858 2 7V31C2 33.7614 4.23858 36 7 36H31C33.7614 36 36 33.7614 36 31V7C36 4.23858 33.7614 2 31 2H7Z" fill="#FFC104" stroke="white" stroke-width="4"/>
<path d="M19 12C18.783 12 18.5749 12.0868 18.4215 12.2412C18.268 12.3956 18.1818 12.6051 18.1818 12.8235C18.1817 12.9547 18.2126 13.0839 18.2721 13.2006C18.3316 13.3173 18.4179 13.4179 18.5238 13.4943L16.0101 17.0361L11.5932 15.5547C11.6214 15.4707 11.636 15.3827 11.6364 15.2941C11.6364 15.0757 11.5502 14.8662 11.3967 14.7118C11.2433 14.5574 11.0352 14.4706 10.8182 14.4706C10.6012 14.4706 10.3931 14.5574 10.2396 14.7118C10.0862 14.8662 10 15.0757 10 15.2941C10 15.5125 10.0862 15.722 10.2396 15.8764C10.3931 16.0309 10.6012 16.1176 10.8182 16.1176C10.8779 16.1172 10.9374 16.1102 10.9956 16.0967L12.4545 22.7059V26H25.5455V22.7059L27.0044 16.0983C27.0627 16.1113 27.1222 16.1177 27.1818 16.1176C27.3988 16.1176 27.6069 16.0309 27.7604 15.8764C27.9138 15.722 28 15.5125 28 15.2941C28 15.0757 27.9138 14.8662 27.7604 14.7118C27.6069 14.5574 27.3988 14.4706 27.1818 14.4706C26.9648 14.4706 26.7567 14.5574 26.6033 14.7118C26.4498 14.8662 26.3636 15.0757 26.3636 15.2941C26.364 15.3827 26.3786 15.4707 26.4068 15.5547L21.9899 17.0361L19.4746 13.4926C19.5806 13.4167 19.6671 13.3163 19.7268 13.1999C19.7866 13.0836 19.8179 12.9545 19.8182 12.8235C19.8182 12.6051 19.732 12.3956 19.5785 12.2412C19.4251 12.0868 19.217 12 19 12ZM19 15.6576L20.6571 17.9931L21.3603 18.9839L22.506 18.5995L24.9574 17.7776L24.2335 21.0588H13.7665L13.0426 17.776L15.4924 18.5979L16.6381 18.9823L17.3413 17.9931L19 15.6576ZM14.0909 22.7059H23.9091V24.3529H14.0909V22.7059Z" fill="white"/>
</svg>
