<?xml version="1.0" encoding="UTF-8"?>
<svg width="20px" height="20px" viewBox="0 0 20 20" version="1.1" xmlns="http://www.w3.org/2000/svg" xmlns:xlink="http://www.w3.org/1999/xlink">
    <!-- Generator: Sketch 52.4 (67378) - http://www.bohemiancoding.com/sketch -->
    <title>Mask</title>
    <desc>Created with Sketch.</desc>
    <defs>
        <path d="M10.9881963,12.0144376 L10.9881963,5.85698956 L8.93571359,5.85698956 L8.93571359,12.0144376 L10.9881963,12.0144376 Z M10.9881963,12.0144376 L14.0669203,12.0144376 L14.0669203,9.96195493 L10.9881963,9.96195493 L10.9881963,12.0144376 Z M15.7294313,2.75774071 C14.1387572,1.48520144 12.1375866,0.72578285 9.96195493,0.72578285 C4.86153546,0.72578285 0.72578285,4.86153546 0.72578285,9.96195493 C0.72578285,15.0623744 4.85127305,19.198127 9.96195493,19.198127 C15.0726368,19.198127 19.198127,15.0623744 19.198127,9.96195493 C19.198127,7.78632329 18.4387084,5.78515267 17.1764316,4.204741 L15.7294313,2.75774071 Z M2.77826554,9.96195493 C2.77826554,5.99040094 5.99040094,2.77826554 9.96195493,2.77826554 C13.9335089,2.77826554 17.1456443,5.99040094 17.1456443,9.96195493 C17.1456443,13.9335089 13.9335089,17.1456443 9.96195493,17.1456443 C5.99040094,17.1456443 2.77826554,13.9335089 2.77826554,9.96195493 Z" id="path-1"></path>
    </defs>
    <g id="Page-1" stroke="none" stroke-width="1" fill="none" fill-rule="evenodd">
        <g id="Homepage" transform="translate(-89.000000, -2890.000000)">
            <g id="icon-time" transform="translate(89.000000, 2890.000000)">
                <mask id="mask-2" fill="white">
                    <use xlink:href="#path-1"></use>
                </mask>
                <use id="Mask" fill="#B0B9BE" xlink:href="#path-1"></use>
            </g>
        </g>
    </g>
</svg>